<svg width="20" height="20" viewBox="0 0 20 20" fill="none" xmlns="http://www.w3.org/2000/svg">
<rect width="20" height="20" fill="white"/>
<circle cx="10" cy="10" r="9.5" stroke="#C3B091"/>
<path d="M8.00568 13V7.18182H10.3011C10.7405 7.18182 11.1155 7.26042 11.4261 7.41761C11.7386 7.57292 11.9763 7.79356 12.1392 8.07955C12.304 8.36364 12.3864 8.69792 12.3864 9.08239C12.3864 9.46875 12.303 9.80114 12.1364 10.0795C11.9697 10.3561 11.7282 10.5682 11.4119 10.7159C11.0975 10.8636 10.7169 10.9375 10.2699 10.9375H8.73295V9.94886H10.071C10.3059 9.94886 10.5009 9.91667 10.6562 9.85227C10.8116 9.78788 10.9271 9.69129 11.0028 9.5625C11.0805 9.43371 11.1193 9.27367 11.1193 9.08239C11.1193 8.8892 11.0805 8.72633 11.0028 8.59375C10.9271 8.46117 10.8106 8.3608 10.6534 8.29261C10.4981 8.22254 10.3021 8.1875 10.0653 8.1875H9.2358V13H8.00568ZM11.1477 10.3523L12.5938 13H11.2358L9.82102 10.3523H11.1477Z" fill="#61DAFB"/>
</svg>
